<svg width="137" height="117" viewBox="0 0 137 117" fill="none" xmlns="http://www.w3.org/2000/svg">
<path d="M61.08 42.768C62.36 42.768 63.384 43.2373 64.152 44.176C65.0053 45.1147 65.432 46.4373 65.432 48.144C65.432 48.9973 65.2613 50.1067 64.92 51.472C64.4933 53.52 63.6827 55.44 62.488 57.232C61.2933 58.9387 59.8853 60.304 58.264 61.328C57.24 61.9253 56.216 62.352 55.192 62.608C54.168 62.7787 52.888 62.9493 51.352 63.12L50.456 63.248H50.072L50.456 72.976C51.1387 72.8053 51.608 72.72 51.864 72.72C52.2907 72.72 52.76 72.8053 53.272 72.976C54.7227 73.232 55.7467 74 56.344 75.28C56.856 76.2187 57.112 77.3707 57.112 78.736C57.112 79.504 57.0267 80.4853 56.856 81.68C56.7707 81.936 56.728 82.2773 56.728 82.704C56.3867 85.776 55.7893 88.5493 54.936 91.024C54.168 93.4987 52.9733 95.8027 51.352 97.936C47.5973 102.544 44.0133 104.848 40.6 104.848C40.0027 104.848 39.5333 104.805 39.192 104.72C37.2293 104.293 35.864 103.269 35.096 101.648C34.4133 100.027 33.944 98.192 33.688 96.144C33.0053 90.9387 32.664 85.0507 32.664 78.48L32.792 68.368V67.344L32.92 65.296L27.928 66.192C25.368 66.7893 23.064 67.4293 21.016 68.112L19.992 68.624C18.968 75.3653 18.328 80.528 18.072 84.112C17.9013 85.4773 17.816 87.5253 17.816 90.256C17.9013 90.5973 17.944 91.1947 17.944 92.048C17.944 92.816 17.9013 93.4133 17.816 93.84C17.816 95.4613 17.3467 96.9973 16.408 98.448C15.5547 99.8133 14.4027 100.837 12.952 101.52C11.8427 102.032 10.648 102.288 9.368 102.288C7.064 102.288 5.10133 101.52 3.48 99.984C1.60267 98.192 0.664 95.8027 0.664 92.816L0.792 90.896C1.048 86.4587 1.51733 82.064 2.2 77.712C2.968 73.2747 3.992 67.984 5.272 61.84C6.296 56.3787 7.02133 52.2827 7.448 49.552C8.64267 42.2987 9.496 35.6853 10.008 29.712C10.3493 25.9573 10.5627 22.5013 10.648 19.344V18.832C10.7333 17.04 10.904 15.5467 11.16 14.352C11.5013 13.1573 12.184 12.048 13.208 11.024C14.6587 9.57333 16.4507 8.84799 18.584 8.84799C20.8027 8.84799 22.6373 9.57333 24.088 11.024C25.5387 12.4747 26.264 14.5227 26.264 17.168C26.264 18.5333 26.2213 19.5147 26.136 20.112L26.008 20.752L25.24 30.224C24.984 35.2587 24.5573 39.7387 23.96 43.664C23.7893 45.3707 23.448 47.5893 22.936 50.32C24.1307 49.8933 26.136 49.296 28.952 48.528L29.72 48.272C31 48.016 32.1093 47.7173 33.048 47.376C33.048 41.3173 33.0053 36.7947 32.92 33.808V33.552C32.92 25.9573 33.0053 20.2827 33.176 16.528C33.432 10.7253 35.608 6.37333 39.704 3.47199C41.1547 2.448 42.648 1.936 44.184 1.936C45.5493 1.936 46.7013 2.40533 47.64 3.34399C48.664 4.62399 49.176 6.28799 49.176 8.336C49.176 9.18933 49.0907 10.2987 48.92 11.664C48.8347 12.0053 48.792 12.4747 48.792 13.072C48.7067 14.0107 48.664 15.504 48.664 17.552C48.664 19.088 48.7493 21.4773 48.92 24.72L49.048 28.304L49.176 33.552L49.56 44.304L59.416 43.024L60.312 42.896L61.08 42.768ZM134.034 90C134.119 91.1947 134.333 92.9867 134.674 95.376C135.186 98.2773 135.442 100.411 135.442 101.776C135.442 104.421 134.845 106.725 133.65 108.688C132.626 110.48 131.218 112.187 129.426 113.808C127.634 115.515 125.885 116.368 124.178 116.368C120.338 116.368 118.418 111.888 118.418 102.928L118.546 97.04C118.802 89.4453 119.655 81.68 121.106 73.744C119.229 73.8293 118.077 74.0853 117.65 74.512C117.223 74.9387 116.882 75.8347 116.626 77.2C116.626 78.1387 116.455 79.1627 116.114 80.272C115.261 83.6853 113.725 86.9707 111.506 90.128C109.543 92.944 107.154 95.3333 104.338 97.296C101.522 99.1733 98.45 100.453 95.122 101.136C92.818 101.563 90.8127 101.776 89.106 101.776C82.8767 101.776 77.5433 99.8987 73.106 96.144C68.6687 92.304 66.194 87.184 65.682 80.784C65.5967 80.1013 65.554 79.0347 65.554 77.584C65.554 71.952 66.4927 66.064 68.37 59.92C70.2473 53.6907 72.7647 47.1627 75.922 40.336C82.4073 26.256 90.002 15.5893 98.706 8.336C101.351 6.11733 104.253 4.32533 107.41 2.95999C110.567 1.59466 113.597 0.911995 116.498 0.911995C119.058 0.911995 121.362 1.50933 123.41 2.70399C125.543 3.89866 127.25 5.776 128.53 8.336C130.237 11.664 131.09 15.376 131.09 19.472C131.09 23.4827 130.322 27.6213 128.786 31.888C127.25 36.0693 125.202 40.0373 122.642 43.792C121.447 45.584 119.783 47.504 117.65 49.552C115.602 51.5147 113.725 52.496 112.018 52.496C110.994 52.496 110.183 52.0693 109.586 51.216C108.989 50.5333 108.69 49.68 108.69 48.656C108.69 46.608 110.098 43.8773 112.914 40.464L114.706 37.904C115.815 36.0267 116.37 33.9787 116.37 31.76C116.37 28.688 115.389 25.9573 113.426 23.568C111.549 21.1787 109.245 19.984 106.514 19.984C104.551 19.984 102.589 20.7093 100.626 22.16C96.274 25.3173 92.6047 30.3093 89.618 37.136C86.6313 43.8773 84.498 50.6187 83.218 57.36C82.7913 59.664 82.578 61.6267 82.578 63.248C82.578 68.7093 84.1567 73.104 87.314 76.432C90.4713 79.6747 95.0367 81.2107 101.01 81.04C100.413 79.1627 99.8153 77.8827 99.218 77.2C98.6207 76.5173 97.554 76.048 96.018 75.792C95.506 75.7067 94.6953 75.792 93.586 76.048C92.562 76.304 91.794 76.432 91.282 76.432C88.466 76.176 87.058 74.9387 87.058 72.72C87.058 71.8667 87.2713 70.7147 87.698 69.264C88.6367 66.3627 90.002 64.1867 91.794 62.736C93.6713 61.2 95.6767 60.176 97.81 59.664C100.029 59.152 102.845 58.7253 106.258 58.384L110.098 57.872C110.695 57.7867 112.146 57.488 114.45 56.976C114.962 56.8907 116.626 56.5493 119.442 55.952C122.343 55.3547 125.031 55.056 127.506 55.056C132.455 55.056 135.271 56.6347 135.954 59.792C136.125 60.816 136.21 61.5413 136.21 61.968C136.21 63.6747 135.911 65.7227 135.314 68.112C134.973 70.2453 134.759 71.6533 134.674 72.336C134.162 76.5173 133.906 80.784 133.906 85.136C133.906 87.3547 133.949 88.976 134.034 90Z" fill="url(#paint0_linear_127_95)"/>
<defs>
<linearGradient id="paint0_linear_127_95" x1="75" y1="-14" x2="75" y2="125" gradientUnits="userSpaceOnUse">
<stop stop-color="#FF0000" stop-opacity="0.5"/>
<stop offset="1" stop-color="#FF3D00"/>
</linearGradient>
</defs>
</svg>
